# xmcd
#
# Track frame offsets:
#	150
#	13436
#	27899
#	42143
#	55037
#	66401
#	83533
#	98392
#	109436
#	124950
#	137076
#	155435
#	167511
#	184923
#
# Disc length: 2603 seconds
# Revision: 1
# Processed by: cddbd v1.5.2PL0 Copyright (c) Steve Scherf et al.
# Submitted via: dBpowerAMP V12.0
#
DISCID=b60a290e
DTITLE=The Spinney Brothers - No Borders
DYEAR=2013
DGENRE=Country
TTITLE0=Louisville Woman
TTITLE1=On That Glorious Day
TTITLE2=Grandpa's Way of Life
TTITLE3=I Wish That I Could Have Met Carter
TTITLE4=On That Road Leadin' Home
TTITLE5=I'm Not Over You
TTITLE6=I Want My Dog Back
TTITLE7=Big Marshall
TTITLE8=Mama's Roses
TTITLE9=The Moon Saw Me Crying
TTITLE10=Gotta Go Down
TTITLE11=Darlin' Think of What You've Done
TTITLE12=He Never Went Away
TTITLE13=Whiskey Daniels
EXTD=
EXTT0=
EXTT1=
EXTT2=
EXTT3=
EXTT4=
EXTT5=
EXTT6=
EXTT7=
EXTT8=
EXTT9=
EXTT10=
EXTT11=
EXTT12=
EXTT13=
PLAYORDER=
